<?xml version="1.0" encoding="UTF-8" standalone="no"?>
<!-- Created with Inkscape (http://www.inkscape.org/) -->

<svg
   width="1920"
   height="1080"
   viewBox="0 0 1920 1080"
   version="1.1"
   id="svg1"
   xml:space="preserve"
   inkscape:version="1.4.2 (ebf0e940, 2025-05-08)"
   sodipodi:docname="banana.svg"
   xmlns:inkscape="http://www.inkscape.org/namespaces/inkscape"
   xmlns:sodipodi="http://sodipodi.sourceforge.net/DTD/sodipodi-0.dtd"
   xmlns="http://www.w3.org/2000/svg"
   xmlns:svg="http://www.w3.org/2000/svg"><sodipodi:namedview
     id="namedview1"
     pagecolor="#ffffff"
     bordercolor="#000000"
     borderopacity="0.25"
     inkscape:showpageshadow="2"
     inkscape:pageopacity="0.0"
     inkscape:pagecheckerboard="0"
     inkscape:deskcolor="#d1d1d1"
     inkscape:document-units="px"
     inkscape:zoom="3.8087149"
     inkscape:cx="928.79098"
     inkscape:cy="566.98915"
     inkscape:window-width="1528"
     inkscape:window-height="808"
     inkscape:window-x="0"
     inkscape:window-y="25"
     inkscape:window-maximized="0"
     inkscape:current-layer="layer2" /><defs
     id="defs1" /><g
     inkscape:groupmode="layer"
     id="layer2"
     inkscape:label="Layer 2"><path
       style="fill:#ffffff"
       d="m 792.59983,544.16808 c 0,0 6.94682,-24.8101 55.24381,-14.22446 48.29698,10.58564 96.26316,14.55526 96.26316,14.55526 0,0 24.8101,3.30801 53.92061,-8.27003 29.11049,-11.57805 35.06489,-14.55526 35.06489,-14.55526 0,0 19.5173,-18.52487 14.8861,-24.14849 -4.6312,-5.62362 9.2624,-4.30042 9.2624,-4.30042 0,0 16.8709,14.22446 5.9545,19.18648 -10.9165,4.96202 -14.2847,21.61428 -14.2847,21.61428 0,0 6.2391,28.55185 -35.8485,50.44161 -42.08754,21.88975 -218.41782,2.38762 -220.46227,-40.29897 z"
       id="path1" /></g></svg>
